<?xml version="1.0" encoding="utf-8"?>
<!-- Generator: Adobe Illustrator 22.1.0, SVG Export Plug-In . SVG Version: 6.00 Build 0)  -->
<svg version="1.1" id="Layer_1" xmlns="http://www.w3.org/2000/svg" xmlns:xlink="http://www.w3.org/1999/xlink" x="0px" y="0px"
	 viewBox="0 0 500 500" style="enable-background:new 0 0 500 500;" xml:space="preserve">
<style type="text/css">
	.st0{fill-rule:evenodd;clip-rule:evenodd;fill:#75C9F0;}
	.st1{fill-rule:evenodd;clip-rule:evenodd;fill:#88D4ED;}
	.st2{fill-rule:evenodd;clip-rule:evenodd;fill:#2B9ED8;}
	.st3{fill-rule:evenodd;clip-rule:evenodd;fill:#136F9C;}
	.st4{fill-rule:evenodd;clip-rule:evenodd;fill:#1D84BA;}
	.st5{fill-rule:evenodd;clip-rule:evenodd;fill:#FFFFFF;}
	.st6{fill-rule:evenodd;clip-rule:evenodd;fill:#E6E6E6;}
	.st7{fill-rule:evenodd;clip-rule:evenodd;fill:#D2D3D4;}
</style>
<g>
	<path class="st0" d="M205.3,183.4c0-63.1,83-75.9,77.4-10.4c-1.4,16.1,41.8-33.1,69.9,36.5c5.5,13.5-18.7,12.2-19.3,12.8
		c37.2,30.6,51.4,80,17.3,112.1c-23.6,22.3-15.4-55.2-29.6,5.5c-17.4,74-112,46.9-79,8.7c-0.4,0.1-68.8,45.9-70.1-12.7
		c-0.5-21.4,26.6,1.9-22.7-20c-11.7-5.2-14.6-25.1,2.2-36.3c25.5-17-23.4-19.9-12.7-48.1c9.5-25.1,42.8,0.8,29-21.5
		C150.1,181.6,178.1,172,205.3,183.4z"/>
	<path class="st1" d="M191.6,145.7c-7.7,1.2-33.2,23.3-5.8,16.4c8.5-2.1,19.6-16.3,9.1-15.9C194.2,146.2,192.9,145.5,191.6,145.7z"
		/>
	<path class="st1" d="M162.7,174.1c-15.9,4.8-7.8,12.5,2.2,1.5C166.3,174,163.2,173.9,162.7,174.1z"/>
	<path class="st1" d="M337.8,349.4c-7.7,1.2-33.2,23.3-5.8,16.4c8.5-2.1,19.6-16.3,9.1-15.9C340.3,350,339.1,349.2,337.8,349.4z"/>
	<path class="st1" d="M359.4,338.3c-15.9,4.8-7.8,12.5,2.2,1.5C363,338.3,359.9,338.2,359.4,338.3z"/>
	<path class="st1" d="M151,331.3c-3.2-7.1-31.2-25.9-17.3-1.3c4.3,7.6,20.9,14.7,17.7,4.6C151.1,333.9,151.5,332.5,151,331.3z"/>
	<path class="st1" d="M167.3,349.2c-8.8-14.1-14.1-4.2-0.9,2.5C168.3,352.7,167.6,349.7,167.3,349.2z"/>
	<path class="st2" d="M258.3,344.9c44.2,0,80.2-36,80.2-80.2c0-44.2-36-80.2-80.2-80.2c-44.2,0-80.2,36-80.2,80.2
		C178.1,308.9,214.1,344.9,258.3,344.9z"/>
	<path class="st3" d="M251,178.5c23.2,0,44.3,9.4,59.5,24.6c15.2,15.2,24.6,36.3,24.6,59.5c0,23.2-9.4,44.3-24.6,59.5
		c-15.2,15.2-36.3,24.7-59.5,24.7c-23.2,0-44.3-9.4-59.5-24.7c-15.2-15.2-24.7-36.3-24.7-59.5c0-23.2,9.4-44.3,24.7-59.5
		C206.7,187.9,227.7,178.5,251,178.5L251,178.5z M304.9,208.7c-13.8-13.8-32.9-22.3-54-22.3c-21.1,0-40.1,8.5-54,22.3
		c-13.8,13.8-22.3,32.9-22.3,54c0,21.1,8.5,40.1,22.3,54c13.8,13.8,32.9,22.3,54,22.3c21.1,0,40.1-8.5,54-22.3
		c13.8-13.8,22.3-32.9,22.3-54C327.3,241.6,318.7,222.5,304.9,208.7z"/>
	<polygon class="st4" points="190.7,264.7 296.3,224.2 304.4,218 286.8,312.7 254.6,301.1 239,312.2 221.5,280.5 	"/>
	<g>
		<g>
			<polygon class="st5" points="179.3,259.2 211.8,272.4 279.3,231.5 228.7,281 276.8,314.9 298.4,211.4 			"/>
			<polygon class="st6" points="211.8,272.4 224.7,311.7 245.9,293.1 228.7,281 279.3,231.5 			"/>
		</g>
		<polygon class="st7" points="245.9,293.1 224.7,311.7 228.7,281 		"/>
	</g>
	<path class="st5" d="M197,208.7c-13.8,13.8-22.3,32.9-22.3,54c0,21.1,8.5,40.1,22.3,54c0.3,0.3,0.6,0.6,0.9,0.9
		c-12.4-14.1-19.8-32.6-19.8-52.8c0-35.8,23.4-66,55.7-76.4C219.6,191.6,207,198.8,197,208.7z"/>
</g>
</svg>
