<svg id="Layer_1" data-name="Layer 1" xmlns="http://www.w3.org/2000/svg" viewBox="0 0 519 149.566">
  <defs>
    <style>
      .cls-1 {
        fill: #6e36d6;
      }
    </style>
  </defs>
  <title>Katarina Tita Type</title>
  <g>
    <path class="cls-1" d="M153.581,448.548a1.684,1.684,0,0,1,1.66,1.907l-1.214,10.089c.015,3.668-.434,5.2,4.851,2.693,6.379-3.231,13.284-5.509,19.019-5.509a1.684,1.684,0,0,1,1.1,2.959l-8.7,7.488a1.684,1.684,0,1,1-2.2-2.552c2.064-1.98,1.818-2.654.006-2.246a54.8,54.8,0,0,0-12.438,5.5c-1.372.778-2.98,3.9-3.5,7.191l-.742,6.166c-1.009,8.382.094,9.578,7.59,13.855,9.17,5.005,20.634,8.819,28.988,8.819a1.684,1.684,0,1,1,0,3.366c-9.346,0-21.041-4.011-30.6-9.229-5.946-3.262-7.121-3-8.362,3.008l-1.671,13.9a1.684,1.684,0,1,1-3.343-.4l2.278-18.934c.311-2.584.122-5.229-1.024-6.054-3.114-2.964-5.273-5.974-5.273-9.21,0-2.777,1.766-5.336,4.26-7.906,3.947-4.034,5.751-6.969,6.015-9.89l1.624-13.5A1.683,1.683,0,0,1,153.581,448.548Zm-5.3,26.09c-.328-.006-.839.333-1.608,1.149-2.211,2.278-3.3,4.423-3.3,5.563a6.172,6.172,0,0,0,1.072,2.98c2.711,3.663,2.869,1.344,3.768-3.608C148.53,478.05,149.306,474.657,148.281,474.638Z" transform="translate(-140 -447.434)"/>
    <path class="cls-1" d="M192.012,482.413h.058a4.34,4.34,0,0,1,3.671,1.93c.189.313.11.582.217.894a1.683,1.683,0,0,1,2.6,1.791c-.822,3.069-.289,4.77.542,5.81a4.4,4.4,0,0,0,3.4,1.536c7.1,0,10.988-4.238,14.873-8.123a1.684,1.684,0,1,1,2.379,2.383c-3.816,3.816-8.783,9.105-17.252,9.105a7.681,7.681,0,0,1-6.038-2.8c-2.231-2.719-1.3.122-8.34,1.21a3.447,3.447,0,0,1-2.41-.936,3.6,3.6,0,0,1-.975-2.143,8.734,8.734,0,0,1,.813-4.386,14.305,14.305,0,0,1,2.495-4.046A5.64,5.64,0,0,1,192.012,482.413Zm.093,3.381a3.4,3.4,0,0,0-1.555,1.1,11.371,11.371,0,0,0-1.892,3.079c-.882,2.887.886,2.385,3.818.132a16.934,16.934,0,0,0,1.168-1.419,1.682,1.682,0,0,1-.519-1.242,3.1,3.1,0,0,0-.263-1.35c-.129-.213-.153-.29-.758-.3Z" transform="translate(-140 -447.434)"/>
    <path class="cls-1" d="M239.228,452.876a2.8,2.8,0,0,1,2.186,1.044,3.037,3.037,0,0,1,.514,2.1,11.9,11.9,0,0,1-1.354,4.154,59.394,59.394,0,0,1-3.276,5.8c-2.172,3.453-2.384,4.2,1.56,3.707l4.893-.325c.027,0,.055,0,.082,0a1.684,1.684,0,0,1,.92,3.114l-2.692,1.683a1.683,1.683,0,0,1-2.573-1.134l-3.729.248c-4.117.274-3.745.372-6.08,3.726-1.511,2.028-3,3.947-4.348,5.623-1.288,1.6-2.45,2.976-3.4,4.027-2.528,2.768-2.347,4.566-1.774,8.958a7.313,7.313,0,0,0,3.089,4.576c1.646,1.1,4.088,1.826,7.625,1.826,14.212,0,21.328-8.25,25.476-15.433a1.683,1.683,0,1,1,2.917,1.682c-4.448,7.7-12.847,17.12-28.392,17.12-3.994,0-7.143-.815-9.5-2.4a10.926,10.926,0,0,1-4.482-6.552,21.33,21.33,0,0,1,.131-9.229,1.682,1.682,0,0,1,.152-.5c0-.005.005-.01.006-.016a48.279,48.279,0,0,1,2.488-8.188c1.56-3.807,1.886-4.094-4.735-3.834a1.684,1.684,0,1,1-.224-3.361l3.875-.257c4.477,0,5.679-1.7,7.4-4.689,1.156-1.836,2.341-3.56,3.509-5.118a43.778,43.778,0,0,1,5.064-5.795C236.12,453.984,237.363,452.876,239.228,452.876ZM226.267,474.5a.784.784,0,0,0-.182.03c-.96.113-1.587.97-2.11,2.147-1.419,3.249-.254,2.312.7,1.286C225.881,476.3,227.043,474.475,226.267,474.5ZM238.141,457a4.332,4.332,0,0,0-1.3.909,41.071,41.071,0,0,0-4.652,5.338c-.625.837-5.325,6.6-3.2,6.6,1.859-.123,2.667-1.508,4.155-3.606a69.305,69.305,0,0,0,4.394-7.5A9.4,9.4,0,0,0,238.141,457Z" transform="translate(-140 -447.434)"/>
    <path class="cls-1" d="M261.524,482.413h.058a4.341,4.341,0,0,1,3.671,1.93c.189.313.11.582.217.894a1.684,1.684,0,0,1,2.6,1.791c-.822,3.069-.289,4.77.541,5.81a4.4,4.4,0,0,0,3.4,1.536c7.095,0,10.987-4.238,14.873-8.123a1.684,1.684,0,1,1,2.379,2.383c-3.816,3.816-8.783,9.105-17.252,9.105a7.682,7.682,0,0,1-6.038-2.8c-2.231-2.719-1.3.122-8.34,1.21a3.447,3.447,0,0,1-2.41-.936,3.6,3.6,0,0,1-.975-2.143,8.734,8.734,0,0,1,.813-4.386,14.3,14.3,0,0,1,2.5-4.046A5.638,5.638,0,0,1,261.524,482.413Zm.092,3.381a3.4,3.4,0,0,0-1.555,1.1,11.371,11.371,0,0,0-1.892,3.079c-.882,2.887.886,2.385,3.818.132a16.737,16.737,0,0,0,1.168-1.419,1.677,1.677,0,0,1-.518-1.242,3.106,3.106,0,0,0-.264-1.35c-.13-.213-.153-.29-.758-.3Z" transform="translate(-140 -447.434)"/>
    <path class="cls-1" d="M294.153,483.058a1.683,1.683,0,0,1,1.429.842,25.88,25.88,0,0,0,2.754,4c1.425,1.65,3.182,2.9,4.525,2.9,3.959,0,6.486-2.285,8.75-4.549a1.685,1.685,0,1,1,2.383,2.383c-2.359,2.359-5.848,5.535-11.133,5.535-3.059,0-5.378-2.11-7.074-4.077-1.3-1.518-1.721-1.213-3.419,1.728-1.169,2.3-2.349,4.68-3.544,7.025a1.684,1.684,0,0,1-3.172-.952l1.2-10.641a1.684,1.684,0,1,1,3.346.379c0,1.41.957-4.572,3.834-4.572C294.074,483.058,294.113,483.058,294.153,483.058Z" transform="translate(-140 -447.434)"/>
    <path class="cls-1" d="M313.067,485.708a1.7,1.7,0,0,1,1.6,1.682,1.992,1.992,0,0,1-.064.462c-.7,2.6-.755,4.973-.174,6.386s1.51,2.221,4.247,2.221c8.616,0,15.469-4.863,20.842-10.235a1.929,1.929,0,0,1,1.2-.5A1.684,1.684,0,0,1,342.4,487.4a1.934,1.934,0,0,1-.5,1.2c-5.668,5.668-13.34,11.222-23.221,11.222-3.641,0-6.312-1.757-7.361-4.309s-.768-5.545.035-8.541a1.79,1.79,0,0,1,1.543-1.269l.091,0Zm1.3-7.424c.049,0,.1,0,.151,0a1.6,1.6,0,0,1,1.183.764,3.068,3.068,0,0,1,.159,2.292,2.815,2.815,0,0,1-1.326,2.116,1.418,1.418,0,0,1-1.1.1,1.383,1.383,0,0,1-.708-.6,2.769,2.769,0,0,1-.369-1.14,8.992,8.992,0,0,1-.1-1.419h0a1.172,1.172,0,0,1,.173-.562c0-.017,0-.045,0-.062a1.142,1.142,0,0,1,.352-.764,3.34,3.34,0,0,1,.786-.517A1.872,1.872,0,0,1,314.37,478.284Z" transform="translate(-140 -447.434)"/>
    <path class="cls-1" d="M348.916,483.738a6.206,6.206,0,0,1,4.313,2.2c1.164,1.151,2.231,2.542,3.361,3.876,2.261,2.667,4.581,4.889,7.523,4.889a19.643,19.643,0,0,0,9.787-2.9,17.448,17.448,0,0,0,5.76-5.218,1.683,1.683,0,1,1,2.916,1.683,19.563,19.563,0,0,1-6.955,6.433,22.819,22.819,0,0,1-11.508,3.373c-4.578,0-7.707-3.263-10.092-6.077-1.191-1.407-2.246-2.755-3.16-3.659a3.5,3.5,0,0,0-1.945-1.226,3.358,3.358,0,0,0-1.694.893,17.492,17.492,0,0,0-2.507,2.781,64.892,64.892,0,0,0-4.046,6.394,1.684,1.684,0,0,1-3.106-1.2l1.938-8.912a1.705,1.705,0,0,1,3.24-.372c.431,1.367.834-.267,2.314-1.269A6.022,6.022,0,0,1,348.916,483.738Z" transform="translate(-140 -447.434)"/>
    <path class="cls-1" d="M384.86,482.413h.059a4.342,4.342,0,0,1,3.671,1.93c.189.313.109.582.216.894a1.684,1.684,0,0,1,2.6,1.791c-.822,3.069-.289,4.77.542,5.81a4.4,4.4,0,0,0,3.4,1.536c7.1,0,10.988-4.238,14.873-8.123a1.684,1.684,0,1,1,2.379,2.383c-3.815,3.816-8.782,9.105-17.252,9.105a7.683,7.683,0,0,1-6.038-2.8c-2.23-2.719-1.3.122-8.34,1.21a3.447,3.447,0,0,1-2.409-.936,3.593,3.593,0,0,1-.975-2.143,8.728,8.728,0,0,1,.812-4.386,14.329,14.329,0,0,1,2.5-4.046A5.641,5.641,0,0,1,384.86,482.413Zm.093,3.381a3.4,3.4,0,0,0-1.555,1.1,11.347,11.347,0,0,0-1.892,3.079c-.883,2.887.886,2.385,3.818.132a16.926,16.926,0,0,0,1.168-1.419,1.682,1.682,0,0,1-.519-1.242,3.108,3.108,0,0,0-.263-1.35C385.582,485.878,385.559,485.8,384.953,485.793Z" transform="translate(-140 -447.434)"/>
    <path class="cls-1" d="M553.15,447.434a24.674,24.674,0,0,1,2.971.132,4.563,4.563,0,0,1,1.114.248,2.035,2.035,0,0,1,.7.409,1.975,1.975,0,0,1,.638,1.385,2.89,2.89,0,0,1-1.732,2.573,10.042,10.042,0,0,1-2.8,1.176,1.684,1.684,0,0,1-1.884-2.515c-2.265.028-5.108.137-8.753.378-8.118.539-18.978,1.547-29.836,2.743-6.6.728-7.666,1.856-9.828,8.854-3.96,16.324-8.691,31.969-8.691,50.035a1.684,1.684,0,1,1-3.365,0c0-18.964,4.989-35.147,8.974-51.649.713-3.347-.12-5.65-3.98-5.187-3.943.521-7.67,1.045-11.027,1.56a1.684,1.684,0,0,1,.038,3.273,45.917,45.917,0,0,1-9.9,1.167,30.08,30.08,0,0,1-4.413-.174,6.761,6.761,0,0,1-1.663-.387,2.617,2.617,0,0,1-.858-.522,2.112,2.112,0,0,1-.665-1.474,1.92,1.92,0,0,1,.979-1.713,4.885,4.885,0,0,1,1.075-.534,23.385,23.385,0,0,1,2.982-.863c2.458-.58,5.879-1.2,9.979-1.853,8.2-1.3,19.094-2.68,29.989-3.88s21.789-2.214,29.985-2.758C547.28,447.587,550.7,447.434,553.15,447.434Z" transform="translate(-140 -447.434)"/>
    <path class="cls-1" d="M528.275,485.708a1.7,1.7,0,0,1,1.6,1.682,1.992,1.992,0,0,1-.064.462c-.7,2.6-.755,4.973-.174,6.386s1.51,2.221,4.247,2.221c8.616,0,15.469-4.863,20.842-10.235a1.929,1.929,0,0,1,1.2-.5,1.684,1.684,0,0,1,1.684,1.684,1.934,1.934,0,0,1-.5,1.2c-5.668,5.668-13.341,11.222-23.221,11.222-3.641,0-6.312-1.757-7.361-4.309s-.768-5.545.035-8.541a1.79,1.79,0,0,1,1.543-1.269l.091,0Zm1.3-7.424c.049,0,.1,0,.151,0a1.6,1.6,0,0,1,1.183.764,3.068,3.068,0,0,1,.159,2.292,2.815,2.815,0,0,1-1.326,2.116,1.418,1.418,0,0,1-1.1.1,1.383,1.383,0,0,1-.708-.6,2.769,2.769,0,0,1-.369-1.14,8.923,8.923,0,0,1-.1-1.419h0a1.171,1.171,0,0,1,.172-.562c0-.017,0-.045,0-.062a1.142,1.142,0,0,1,.352-.764,3.34,3.34,0,0,1,.786-.517A1.872,1.872,0,0,1,529.578,478.284Z" transform="translate(-140 -447.434)"/>
    <path class="cls-1" d="M576.611,452.876h0a2.8,2.8,0,0,1,2.186,1.044,3.031,3.031,0,0,1,.514,2.1,11.883,11.883,0,0,1-1.354,4.154,59.42,59.42,0,0,1-3.277,5.8c-2.172,3.453-2.383,4.2,1.56,3.707l4.894-.325c.027,0,.055,0,.082,0a1.684,1.684,0,0,1,.92,3.114l-2.692,1.683a1.683,1.683,0,0,1-2.572-1.134l-3.729.248c-4.116.274-3.745.372-6.08,3.726-1.512,2.028-3,3.947-4.348,5.623-1.288,1.6-2.45,2.976-3.4,4.027-2.528,2.768-2.347,4.566-1.774,8.958a7.314,7.314,0,0,0,3.09,4.576c1.646,1.1,4.088,1.826,7.624,1.826,14.213,0,21.328-8.25,25.476-15.433a1.684,1.684,0,1,1,2.917,1.682c-4.447,7.7-12.847,17.12-28.393,17.12-3.993,0-7.142-.815-9.5-2.4a10.922,10.922,0,0,1-4.482-6.552,21.323,21.323,0,0,1,.131-9.229,1.653,1.653,0,0,1,.151-.5c0-.005.006-.01.007-.016a48.273,48.273,0,0,1,2.487-8.188c1.561-3.807,1.887-4.094-4.735-3.834a1.684,1.684,0,1,1-.224-3.361l3.876-.257c4.477,0,5.679-1.7,7.4-4.689,1.156-1.836,2.341-3.56,3.509-5.118a43.778,43.778,0,0,1,5.064-5.795C573.5,453.984,574.747,452.876,576.611,452.876ZM563.651,474.5a.8.8,0,0,0-.183.03c-.96.113-1.587.97-2.109,2.147-1.419,3.249-.255,2.312.7,1.286C563.266,476.3,564.428,474.475,563.651,474.5ZM575.524,457a4.343,4.343,0,0,0-1.3.909,41.108,41.108,0,0,0-4.652,5.338c-.624.837-5.325,6.6-3.2,6.6,1.859-.123,2.668-1.508,4.155-3.606a69.305,69.305,0,0,0,4.394-7.5A9.322,9.322,0,0,0,575.524,457Z" transform="translate(-140 -447.434)"/>
    <path class="cls-1" d="M598.908,482.413h.059a4.342,4.342,0,0,1,3.671,1.93c.189.313.109.582.216.894a1.684,1.684,0,0,1,2.6,1.791c-.822,3.069-.289,4.77.542,5.81a4.4,4.4,0,0,0,3.4,1.536c7.1,0,10.988-4.238,14.873-8.123a1.684,1.684,0,1,1,2.379,2.383c-3.815,3.816-8.782,9.105-17.252,9.105a7.683,7.683,0,0,1-6.038-2.8c-2.23-2.719-1.3.122-8.339,1.21a3.447,3.447,0,0,1-2.41-.936,3.593,3.593,0,0,1-.975-2.143,8.728,8.728,0,0,1,.812-4.386,14.329,14.329,0,0,1,2.5-4.046A5.641,5.641,0,0,1,598.908,482.413Zm.093,3.381a3.4,3.4,0,0,0-1.555,1.1,11.347,11.347,0,0,0-1.892,3.079c-.883,2.887.886,2.385,3.818.132a16.926,16.926,0,0,0,1.168-1.419,1.682,1.682,0,0,1-.519-1.242,3.108,3.108,0,0,0-.263-1.35C599.63,485.878,599.606,485.8,599,485.793Z" transform="translate(-140 -447.434)"/>
  </g>
</svg>
